<svg 
 xmlns="http://www.w3.org/2000/svg"
 xmlns:xlink="http://www.w3.org/1999/xlink"
 width="15px" height="15px">
<path fill-rule="evenodd"  fill="rgb(255, 255, 255)"
 d="M13.781,13.781 C13.481,14.082 12.993,14.082 12.693,13.781 L9.916,11.005 C7.501,12.879 4.025,12.734 1.807,10.515 C-0.598,8.111 -0.598,4.212 1.807,1.806 C4.211,-0.598 8.111,-0.598 10.515,1.806 C12.734,4.025 12.879,7.501 11.005,9.916 L13.781,12.692 C14.082,12.993 14.082,13.481 13.781,13.781 ZM9.427,2.895 C7.623,1.092 4.699,1.092 2.895,2.895 C1.091,4.699 1.091,7.623 2.895,9.427 C4.699,11.230 7.623,11.230 9.427,9.427 C11.230,7.623 11.230,4.699 9.427,2.895 Z"/>
</svg>