<svg xmlns="http://www.w3.org/2000/svg" viewBox="0 0 646.3 191"><defs><style>.cls-1{fill:#fff;}</style></defs><title>Ресурс 3</title><g id="Слой_2" data-name="Слой 2"><g id="Layer_1" data-name="Layer 1"><path class="cls-1" d="M37.4,133.5,0,104.8v-3c0-19.2,18.9-27.6,36.6-36,13.4-6.4,28.6-13.6,28.6-22H78.7c0,16.9-18.5,25.7-36.3,34.2-13,6.2-26.5,12.6-28.7,20.3l24,18.6,27.5-19V76.6H78.7V105Z"/><path class="cls-1" d="M13.6,64.3H.1c0-16.9,18.5-25.7,36.3-34.2,10.9-5.2,22.1-10.5,26.7-16.6H13.5V31.8H0V0S27.7.1,38.3.1L78.7,0V3.1c0,23.1-18.9,30.8-36.6,39.2C28.8,48.7,13.6,55.9,13.6,64.3Z"/><path class="cls-1" d="M292.3,82c-3.8,7.2-13.3,9.4-20.2,9.5h-1.5c-9.4-.1-21.8-3.1-21.9-17.2v-.6h66.1c.1-1.1.1-2.3.1-3.5V61.6c0-24.1-13.1-36.3-39-36.3h-9.1c-25.9,0-39,12.2-39,36.3v8.6c0,24.1,13.1,36.3,39,36.3h9.1c18.5,0,30.4-6.3,35.7-18.7ZM248.8,57.5c0-14.1,12.4-17.1,21.9-17.2h1.5c9.4.1,21.9,3.1,21.9,17.2v3.6H248.8V57.5Z"/><path class="cls-1" d="M183.7,51.7l39.7,53.2H199.9L167.3,61l-22.1-.2v44H123.5V0h21.7V43.6h21.3L198.3,0h22.8Z"/><path class="cls-1" d="M380.5,43.4h-8.4c-8,0-21,.8-21,14.5v46.9h-21v-43c0-16,5.9-34.9,37.4-34.9h12.9V43.4Z"/><path class="cls-1" d="M479.7,104.8h-21V57.9c0-13.7-12.8-14.5-21-14.5H418.2v61.4h-21V27.7s24.9-.8,44.9-.8c31.6,0,37.4,19,37.4,34.9v43Z"/><path class="cls-1" d="M646.3,43.4h-8.4c-6.8,0-12,1.8-15.6,5.5s-5.4,9.1-5.4,16.3v39.7h-21V59.2c0-10.2,3.2-18.1,9.7-23.7S621.3,27,633.4,27h12.9Z"/><path class="cls-1" d="M558.7,82c-3.8,7.2-13.3,9.4-20.2,9.5H537c-9.4-.1-21.8-3.1-21.9-17.2v-.6h66.1c.1-1.1.1-2.3.1-3.5V61.6c0-24.1-13.1-36.3-39-36.3h-9.1c-25.9,0-39,12.2-39,36.3v8.6c0,24.1,13.1,36.3,39,36.3h9.1c18.5,0,30.4-6.3,35.7-18.7ZM515.2,57.5c0-14.1,12.4-17.1,21.9-17.2h1.5c9.4.1,21.9,3.1,21.9,17.2v3.6H515.2Z"/><path class="cls-1" d="M161.6,155v23.1h-3.9V156c-.1-4.2-1.2-6-4-6s-4.6,1.7-8.5,5.2v22.9h-4V156c.1-4.3-1.3-6-4-6-2.5,0-4.6,1.6-8.4,5.2v22.9h-4.1V147.3H128l.3,5c3.5-3.9,6.8-5.8,10.2-5.8s5.7,2,6.4,5.7c3.4-3.8,6.7-5.7,10-5.7C159.3,146.6,161.6,149.5,161.6,155Z"/><path class="cls-1" d="M191,156.1v22.1h-3.2l-.5-5.1c-2,2.5-5.9,5.6-10.4,5.6s-7.3-2.9-7.3-8.3v-3.6c0-4.8,2.5-7.5,6.7-7.5h10.6v-3.2c-.1-3.9-1.1-6-5.1-6a97.26,97.26,0,0,0-10.9.9l-.4-3a77.25,77.25,0,0,1,12-1.4C188,146.6,191,149,191,156.1Zm-4.1,14.1v-7.8l-9.9.1c-2.5.1-3.4,1.8-3.4,4.8V170c0,3.5,1.3,5.1,3.9,5.1S184,173.3,186.9,170.2Z"/><path class="cls-1" d="M218.7,148l-.6,2.6a40.74,40.74,0,0,0-6.7-.5c-6,0-8.2,2.9-8.2,12.7s2.2,12.7,8.2,12.7a35.4,35.4,0,0,0,7.3-.7l.4,2.8a25.08,25.08,0,0,1-8.4,1.4c-8.6,0-11.8-4.3-11.8-16.1s3.2-16.2,11.8-16.2A19,19,0,0,1,218.7,148Z"/><path class="cls-1" d="M248,155v23.1h-4V156c0-4.4-1.1-6-3.8-6-3,0-5.7,1.8-9.7,5.2v22.9h-4.1V133.6h4.1v12.8a53.38,53.38,0,0,1-.3,6c3.8-3.6,7.4-5.8,11.1-5.8C245.7,146.6,248,149.5,248,155Z"/><path class="cls-1" d="M260.5,134.4a1.16,1.16,0,0,1,1.3,1.3v3.7c0,.9-.4,1.3-1.3,1.3h-1.9c-.8,0-1.2-.4-1.2-1.3v-3.7c0-.9.4-1.3,1.2-1.3Zm-3,43.8V147.4h4v30.8Z"/><path class="cls-1" d="M292.9,155v23.1h-4.1V156c0-4.4-1.1-6-3.7-6-3,0-5.7,1.9-9.8,5.3v22.8h-4.1V147.3h3.4l.3,5c3.9-3.7,7.5-5.8,11.2-5.8C290.5,146.6,292.9,149.5,292.9,155Z"/><path class="cls-1" d="M321.9,174.7l.4,2.7c-2.2,1-6.7,1.5-9.6,1.5-8.5,0-11.8-4.4-11.8-16.3s3.4-16.1,11.4-16.1c7.4,0,10.6,3.2,10.6,9.6.1,5.5-1.7,8.6-5.9,8.6H305.2c.3,8.4,2.6,10.7,7.9,10.7A60.37,60.37,0,0,0,321.9,174.7Zm-16.7-13.1H316c2.3,0,2.9-2.3,2.8-5.3,0-4.3-1.8-6.2-6.3-6.2C307.1,150.1,305.3,152.9,305.2,161.6Z"/><path class="cls-1" d="M349.5,147.5l-.4,2.9c-3.1-.2-6.4-.4-9.5-.4-4.7-.1-6.2.1-6.2,4.9,0,3.7,1.2,4.5,3.6,5.1l7.4,1.8c3.9,1,5.8,3.1,5.8,8.3,0,7.6-3.4,8.7-10.6,8.7a61,61,0,0,1-9.7-.8l.3-3a74.17,74.17,0,0,0,8.6.4c5.7-.1,7.4-.8,7.4-5.3,0-3.6-1.6-4.4-3.9-5l-7.2-1.8c-4-1-5.7-3.2-5.7-8.4,0-7.4,3-8.5,9.7-8.4A89.31,89.31,0,0,1,349.5,147.5Z"/><path class="cls-1" d="M438.1,147.5l-.4,2.9c-3.1-.2-6.4-.4-9.5-.4-4.7-.1-6.2.1-6.2,4.9,0,3.7,1.2,4.5,3.6,5.1l7.4,1.8c3.9,1,5.8,3.1,5.8,8.3,0,7.6-3.4,8.7-10.6,8.7a61,61,0,0,1-9.7-.8l.3-3a74.17,74.17,0,0,0,8.6.4c5.7-.1,7.4-.8,7.4-5.3,0-3.6-1.6-4.4-3.9-5l-7.2-1.8c-4-1-5.7-3.2-5.7-8.4,0-7.4,3-8.5,9.7-8.4A89.31,89.31,0,0,1,438.1,147.5Z"/><path class="cls-1" d="M467.6,178.2h-3.2l-.4-4.6c-3.7,3.6-7.1,5.4-10.7,5.4-4.5,0-6.7-2.9-6.7-8.4V147.5h4.1v22.1c-.1,4.3,1.1,6,4,6s5.3-1.7,9-5v-23h4v30.6Z"/><path class="cls-1" d="M499.7,162.9c0,11.8-3.1,16-9.5,16a16.09,16.09,0,0,1-9.3-3.2c.2,2.1.2,3.9.2,6V191H477V147.3h3.3l.4,5c2.8-3.7,6.7-5.8,10.3-5.8C497.2,146.6,499.7,151.9,499.7,162.9Zm-4.3,0c0-9.4-1.6-12.7-5.7-12.7-2.7,0-5.2,1.7-8.6,5.3v17.7c3.2,1.4,5.5,2.3,8.1,2.3C493.7,175.4,495.4,172.5,495.4,162.9Z"/><path class="cls-1" d="M530.6,162.9c0,11.8-3.1,16-9.5,16a16.09,16.09,0,0,1-9.3-3.2c.2,2.1.2,3.9.2,6V191h-4.1V147.3h3.3l.4,5c2.8-3.7,6.7-5.8,10.3-5.8C528.1,146.6,530.6,151.9,530.6,162.9Zm-4.3,0c0-9.4-1.6-12.7-5.7-12.7-2.7,0-5.2,1.7-8.6,5.3v17.7c3.2,1.4,5.5,2.3,8.1,2.3C524.6,175.4,526.3,172.5,526.3,162.9Z"/><path class="cls-1" d="M542.9,170.5c0,2.9,1.2,4.4,3.4,4.4h2.5l.5,3.1a15.81,15.81,0,0,1-4.5.6c-3.6,0-6-2.6-6-7.4V133.6h4.1Z"/><path class="cls-1" d="M558.3,134.4a1.16,1.16,0,0,1,1.3,1.3v3.7c0,.9-.4,1.3-1.3,1.3h-1.9c-.8,0-1.2-.4-1.2-1.3v-3.7c0-.9.4-1.3,1.2-1.3Zm-2.9,43.8V147.4h4v30.8Z"/><path class="cls-1" d="M588.9,174.7l.4,2.7c-2.2,1-6.7,1.5-9.6,1.5-8.5,0-11.8-4.4-11.8-16.3s3.4-16.1,11.4-16.1c7.4,0,10.5,3.2,10.5,9.6.1,5.5-1.7,8.6-5.8,8.6H572.2c.3,8.4,2.6,10.7,7.9,10.7A60.37,60.37,0,0,0,588.9,174.7Zm-16.8-13.1h10.8c2.3,0,2.9-2.3,2.8-5.3,0-4.3-1.8-6.2-6.3-6.2C574.1,150.1,572.3,152.9,572.1,161.6Z"/><path class="cls-1" d="M616.5,147.5l-.4,2.9c-3.1-.2-6.4-.4-9.5-.4-4.7-.1-6.2.1-6.2,4.9,0,3.7,1.2,4.5,3.6,5.1l7.4,1.8c3.9,1,5.8,3.1,5.8,8.3,0,7.6-3.4,8.7-10.6,8.7a61,61,0,0,1-9.7-.8l.3-3a74.17,74.17,0,0,0,8.6.4c5.7-.1,7.4-.8,7.4-5.3,0-3.6-1.6-4.4-3.9-5l-7.2-1.8c-4-1-5.7-3.2-5.7-8.4,0-7.4,3-8.5,9.7-8.4A89.31,89.31,0,0,1,616.5,147.5Z"/><path class="cls-1" d="M394.8,172.2s.9-5.6-.2-9.6H391a21,21,0,0,1,.6,6.2l-12.1-14.2c-1-1.2-1.3-2.3-1.3-5.4,0-6.8,2.6-7.1,5.4-7.1,3,0,3.9.5,4.8,2a7.2,7.2,0,0,1,.8,3.6h3.4c0-3.3-.8-5.1-1.3-5.7-1.4-2.1-3.3-3-7.8-3-7,0-8.8,2.6-8.8,9.9,0,3.6.3,5.4,3,8.8h-.6c-4.3.4-5.3,4.8-5.3,10.8,0,7.5,2.9,10.6,11.7,10.6,5.8,0,8.7-1.1,10.2-3.5a15.83,15.83,0,0,1,1.8,3h3.8C398.6,176.7,394.8,172.2,394.8,172.2Zm-11.2,3.6c-5.9,0-8.1-2.1-8.1-8,0-4.6.6-6.8,2.6-7.8.3-.1.8-.4,1.2-.5l11.6,13.1C390.1,174.9,387.5,175.8,383.6,175.8Z"/></g></g></svg>